<svg version="1.1" xmlns="http://www.w3.org/2000/svg" xmlns:xlink="http://www.w3.org/1999/xlink" width="344.29032" height="344.29032" viewBox="0,0,344.29032,344.29032"><defs><radialGradient cx="240" cy="180" r="172.14516" gradientUnits="userSpaceOnUse" id="color-1"><stop offset="0" stop-color="#85b1f2" stop-opacity="0.4"/><stop offset="1" stop-color="#85b1f2" stop-opacity="0"/></radialGradient><radialGradient cx="231.12096" cy="158.20161" r="113.54839" gradientUnits="userSpaceOnUse" id="color-2"><stop offset="0" stop-color="#ccf0ff"/><stop offset="1" stop-color="#ccf0ff" stop-opacity="0"/></radialGradient><radialGradient cx="287.58064" cy="155.7258" r="96.25" gradientUnits="userSpaceOnUse" id="color-3"><stop offset="0" stop-color="#cef2f2"/><stop offset="1" stop-color="#cef2f2" stop-opacity="0"/></radialGradient><radialGradient cx="276.08064" cy="202.3387" r="98.75" gradientUnits="userSpaceOnUse" id="color-4"><stop offset="0" stop-color="#ced2f2"/><stop offset="1" stop-color="#ced2f2" stop-opacity="0"/></radialGradient><radialGradient cx="200.53226" cy="194.75806" r="113.10484" gradientUnits="userSpaceOnUse" id="color-5"><stop offset="0" stop-color="#cce0ff"/><stop offset="1" stop-color="#cce0ff" stop-opacity="0"/></radialGradient><linearGradient x1="216.15561" y1="179.97065" x2="302.54026" y2="179.97065" gradientUnits="userSpaceOnUse" id="color-6"><stop offset="0" stop-color="#808cff"/><stop offset="1" stop-color="#7381ff"/></linearGradient><linearGradient x1="177.50673" y1="180.02941" x2="263.89138" y2="180.02941" gradientUnits="userSpaceOnUse" id="color-7"><stop offset="0" stop-color="#80b3ff"/><stop offset="1" stop-color="#73abff"/></linearGradient><linearGradient x1="177.45974" y1="179.98241" x2="263.84438" y2="179.98241" gradientUnits="userSpaceOnUse" id="color-8"><stop offset="0" stop-color="#80d9ff"/><stop offset="1" stop-color="#73d5ff"/></linearGradient></defs><g transform="translate(-67.85484,-7.85484)"><g data-paper-data="{&quot;isPaintingLayer&quot;:true}" fill-rule="nonzero" stroke="none" stroke-width="0" stroke-linecap="butt" stroke-linejoin="miter" stroke-miterlimit="10" stroke-dasharray="" stroke-dashoffset="0" style="mix-blend-mode: normal"><path d="M67.85484,180c0,-95.07315 77.07202,-172.14516 172.14516,-172.14516c95.07315,0 172.14516,77.07202 172.14516,172.14516c0,95.07315 -77.07202,172.14516 -172.14516,172.14516c-95.07315,0 -172.14516,-77.07202 -172.14516,-172.14516z" fill="url(#color-1)"/><path d="M117.57258,158.20161c0,-62.71104 50.83734,-113.54839 113.54839,-113.54839c62.71104,0 113.54839,50.83735 113.54839,113.54839c0,62.71104 -50.83734,113.54839 -113.54839,113.54839c-62.71104,0 -113.54839,-50.83734 -113.54839,-113.54839z" fill="url(#color-2)"/><path d="M191.33064,155.7258c0,-53.1574 43.09259,-96.25 96.25,-96.25c53.1574,0 96.25,43.09259 96.25,96.25c0,53.1574 -43.09259,96.25 -96.25,96.25c-53.1574,0 -96.25,-43.09259 -96.25,-96.25z" fill="url(#color-3)"/><path d="M177.33064,202.3387c0,-54.53811 44.21188,-98.75 98.75,-98.75c54.53811,0 98.75,44.21188 98.75,98.75c0,54.53811 -44.21188,98.75 -98.75,98.75c-54.53811,0 -98.75,-44.21188 -98.75,-98.75z" fill="url(#color-4)"/><path d="M87.42742,194.75806c0,-62.46608 50.63876,-113.10484 113.10484,-113.10484c62.46608,0 113.10484,50.63877 113.10484,113.10484c0,62.46608 -50.63876,113.10484 -113.10484,113.10484c-62.46608,0 -113.10484,-50.63876 -113.10484,-113.10484z" fill="url(#color-5)"/><g><path d="M216.15561,223.16295c0,0 0,-59.15971 0,-73.33639c0,-5.66341 7.41524,-13.04827 13.83517,-13.04827c14.70125,0 72.54948,0 72.54948,0z" fill="url(#color-6)"/><path d="M177.50673,223.22172c0,0 0,-59.15967 0,-73.33639c0,-5.66341 7.41524,-13.04827 13.83517,-13.04827c14.70125,0 72.54948,0 72.54948,0z" fill="url(#color-7)"/><path d="M177.45974,181.04745c0,0 0,-17.0324 0,-31.20911c0,-5.66341 7.41524,-13.04827 13.83517,-13.04827c14.70125,0 33.9006,0 33.9006,0z" fill="url(#color-8)"/></g></g></g></svg>