<svg version="1.1" xmlns="http://www.w3.org/2000/svg" xmlns:xlink="http://www.w3.org/1999/xlink" width="275" height="275" viewBox="0,0,275,275"><defs><linearGradient x1="194.62245" y1="179.94412" x2="359.01854" y2="179.94412" gradientUnits="userSpaceOnUse" id="color-1"><stop offset="0" stop-color="#808cff"/><stop offset="1" stop-color="#7381ff"/></linearGradient><linearGradient x1="121.07088" y1="180.05595" x2="285.46698" y2="180.05595" gradientUnits="userSpaceOnUse" id="color-2"><stop offset="0" stop-color="#80b3ff"/><stop offset="1" stop-color="#73abff"/></linearGradient><linearGradient x1="120.98146" y1="179.96651" x2="285.37755" y2="179.96651" gradientUnits="userSpaceOnUse" id="color-3"><stop offset="0" stop-color="#80d9ff"/><stop offset="1" stop-color="#73d5ff"/></linearGradient></defs><g transform="translate(-102.5,-42.5)"><g data-paper-data="{&quot;isPaintingLayer&quot;:true}" fill-rule="nonzero" stroke="none" stroke-width="0" stroke-linecap="butt" stroke-linejoin="miter" stroke-miterlimit="10" stroke-dasharray="" stroke-dashoffset="0" style="mix-blend-mode: normal"><path d="M102.5,317.5v-275h275v275z" fill="none"/><g><path d="M194.62245,262.14213c0,0 0,-112.5851 0,-139.56433c0,-10.77787 14.11173,-24.83177 26.32931,-24.83177c27.97751,0 138.06679,0 138.06679,0z" fill="url(#color-1)"/><path d="M121.07088,262.25396c0,0 0,-112.58505 0,-139.56433c0,-10.77787 14.11173,-24.83177 26.32931,-24.83177c27.97751,0 138.06679,0 138.06679,0z" fill="url(#color-2)"/><path d="M120.98146,181.99334c0,0 0,-32.41386 0,-59.39314c0,-10.77787 14.11173,-24.83177 26.32931,-24.83177c27.97751,0 64.51523,0 64.51523,0z" fill="url(#color-3)"/></g></g></g></svg>